<?xml version="1.0" standalone="no"?>
<!DOCTYPE svg PUBLIC "-//W3C//DTD SVG 20010904//EN"
 "http://www.w3.org/TR/2001/REC-SVG-20010904/DTD/svg10.dtd">
<svg version="1.0" xmlns="http://www.w3.org/2000/svg"
 width="492.000000pt" height="492.000000pt" viewBox="0 0 492.000000 492.000000"
 preserveAspectRatio="xMidYMid meet">
<metadata>
Created by potrace 1.11, written by Peter Selinger 2001-2013
</metadata>
<g transform="translate(0.000000,492.000000) scale(0.100000,-0.100000)"
fill="#000000" stroke="none">
<path d="M3723 4848 c-92 -85 -265 -244 -308 -284 -16 -15 -75 -68 -130 -119
-55 -51 -125 -115 -155 -143 -30 -27 -71 -65 -91 -83 -20 -19 -58 -54 -85 -79
-27 -25 -80 -74 -119 -109 -38 -36 -122 -112 -185 -170 -63 -58 -139 -128
-169 -156 -30 -27 -65 -59 -76 -70 -33 -30 -226 -208 -260 -239 -16 -15 -48
-44 -70 -65 -22 -20 -80 -74 -129 -119 l-89 -81 -41 36 c-38 33 -165 149 -291
264 -27 25 -81 75 -120 110 -38 35 -75 68 -81 74 -6 5 -51 46 -100 90 -48 44
-95 87 -104 95 -9 8 -26 24 -38 34 l-22 19 -225 -225 -224 -225 161 -154 c89
-85 182 -174 208 -199 39 -37 197 -188 481 -460 312 -299 458 -438 502 -479
l26 -23 294 298 c162 165 365 371 452 459 86 88 374 381 640 650 769 781 925
940 925 946 0 3 -66 68 -146 145 -81 76 -163 155 -183 174 -20 19 -66 63 -103
98 l-66 63 -79 -73z"/>
<path d="M2810 2720 c-63 -65 -335 -342 -605 -616 -1004 -1018 -1118 -1134
-1353 -1374 l-241 -245 37 -33 c20 -19 111 -105 201 -191 254 -242 264 -251
268 -251 2 0 65 57 141 127 75 70 184 170 241 222 57 53 116 107 131 121 97
91 158 146 249 230 139 126 237 217 283 260 20 20 67 63 105 97 37 33 87 78
109 99 23 22 81 75 129 119 48 44 102 94 119 110 18 17 60 55 92 85 33 30 105
96 160 147 54 50 119 110 144 132 l44 40 56 -52 c30 -29 97 -90 149 -137 51
-47 108 -98 126 -115 17 -16 52 -48 76 -69 24 -22 69 -62 99 -90 185 -170 281
-256 288 -256 7 0 442 438 442 445 0 4 -20 26 -44 49 -24 22 -120 114 -213
203 -92 89 -193 185 -223 214 -30 29 -138 132 -240 230 -102 97 -208 199 -236
226 -28 26 -129 122 -224 213 -94 91 -177 168 -183 171 -7 4 -60 -43 -127
-111z"/>
</g>
</svg>
